o Cube
v  1.0  1.0  1.0
v -1.0  1.0  1.0
v -1.0 -1.0  1.0
v  1.0 -1.0  1.0
v  1.0  1.0 -1.0
v -1.0  1.0 -1.0
v -1.0 -1.0 -1.0
v  1.0 -1.0 -1.0
vt 0.0 0.0
vt 1.0 0.0
vt 0.0 1.0
vt 1.0 1.0
vn  0.0  0.0  1.0
vn  0.0  1.0  0.0
vn  1.0  0.0  0.0
vn  0.0  0.0 -1.0
vn  0.0 -1.0  0.0
vn -1.0  0.0  0.0
f 1/2/1 2/4/1 4/1/1
f 4/1/1 2/4/1 3/3/1
f 5/1/2 6/2/2 2/4/2
f 5/1/2 2/4/2 1/3/2
f 7/1/5 8/2/5 4/4/5
f 7/1/5 4/4/5 3/3/5
f 8/1/3 5/2/3 1/4/3
f 8/1/3 1/4/3 4/3/3
f 6/1/6 7/2/6 3/4/6
f 6/1/6 3/4/6 2/3/6
f 5/1/4 8/2/4 7/4/4
f 5/1/4 7/4/4 6/3/4